
        <svg xmlns="http://www.w3.org/2000/svg" xmlns:xlink="http://www.w3.org/1999/xlink" version="1.1" width="3127.9996378557425" 
        height="480.5106405104582" viewBox="0 0 3127.9996378557425 480.5106405104582">
			
			<g transform="scale(6.399981892787135) translate(10, 10)">
				<defs id="SvgjsDefs1624"></defs><g id="SvgjsG1625" featureKey="nameLeftFeature-0" transform="matrix(2.380951798271693,0,0,2.380951798271693,-2.359787755165372,-1.6190405067390135)" fill="#fae398"><path d="M1.02 15.9 l-0.02 0 c0 0.5 -0.02 1.02 0 1.54 c0.02 0.64 0.06 1.28 0.1 1.92 c0 0.22 0.06 0.28 0.26 0.32 c0.42 0.1 0.82 0.12 1.24 0.12 c1.08 -0.04 2.16 0.04 3.24 0 c0.44 -0.02 0.64 0.02 1.08 -0.06 c0.4 -0.08 0.54 -0.3 0.54 -0.9 c-0.04 -0.38 -0.02 -0.54 -0.02 -1 c0 -0.66 -0.46 -0.88 -0.86 -0.86 c-0.28 0.02 -1.62 -0.02 -2.16 -0.02 c-0.9 0.02 -0.76 0.14 -0.76 -0.8 c0 -0.76 0.02 -1.74 0.02 -2.52 c0 -0.42 0.04 -0.56 0.44 -0.56 l2.5 0 c0.4 0.06 0.68 -0.22 0.68 -0.64 s0.04 -0.44 0.04 -0.86 l-0.06 -0.6 c-0.04 -0.34 -0.16 -0.46 -0.5 -0.46 c-0.22 0 -0.44 0.02 -0.66 0.04 c-0.86 0.06 -1.26 -0.06 -2.1 0 c-0.28 0 -0.32 -0.04 -0.34 -0.3 c-0.08 -0.78 0 -1.64 0.08 -2.42 c0.02 -0.32 0.1 -0.38 0.4 -0.4 l2.82 -0.02 c0.38 -0.04 0.5 -0.02 0.48 -0.4 c-0.04 -0.58 0.02 -1.18 -0.04 -1.76 c-0.04 -0.32 -0.14 -0.38 -0.5 -0.38 c-0.6 0.02 -0.74 0.02 -1.34 0.06 c-0.6 0.02 -3 0.02 -3.58 0.02 c-0.84 0 -0.9 -0.06 -0.92 0.96 c-0.04 0.8 -0.02 1.62 -0.02 2.44 c0 1.4 -0.08 6.42 -0.04 7.54 z M12.360000000000001 5.02 c-0.2 0 -0.4 0.02 -0.6 0.02 c-0.3 0 -0.66 -0.06 -0.72 0.34 c-0.2 1.7 -0.38 3.58 -0.58 5.28 c-0.34 2.8 -0.66 5.68 -0.98 8.48 c-0.04 0.38 -0.08 0.74 0.34 0.82 c0.64 0.04 1.12 0.04 1.66 0.02 c0.2 0.02 0.42 0.04 0.48 -0.2 c0.04 -0.1 0.04 -0.2 0.04 -0.3 c0.04 -0.46 0.64 -6.22 0.88 -6.22 c0.38 0 1.38 4.68 1.86 6.4 c0.06 0.24 0.18 0.34 0.42 0.32 c0.5 -0.04 0.98 0 1.48 0 s0.4 -0.32 0.5 -0.74 c0.12 -0.46 1.28 -6 1.56 -6 c0.32 0 0.98 6.42 1.04 6.56 c0.12 0.28 0.46 0.16 0.7 0.16 c0.36 0 0.7 0.04 1.16 0 c0.34 -0.04 0.68 0.08 0.7 -0.36 c0 -0.1 -0.04 -0.2 -0.06 -0.3 c-0.08 -0.5 -0.18 -1.1 -0.28 -1.6 c-0.14 -1.04 -0.34 -2.06 -0.48 -3.1 c-0.2 -1.64 -0.4 -3.28 -0.58 -4.92 c-0.14 -1.4 -0.34 -2.98 -0.46 -4.38 c-0.04 -0.46 -0.56 -0.3 -0.88 -0.3 l-1.38 0 c-0.22 0 -0.32 0.42 -0.36 0.64 c-0.12 0.56 -1.5 7.78 -1.96 7.78 s-1.94 -6.6 -2.2 -8.04 c-0.06 -0.32 -0.28 -0.42 -0.58 -0.42 z M27.060000000000002 14.84 c-0.06 -2.28 -0.04 -4.7 -0.02 -6.96 c0 -0.7 -0.04 -1.46 -0.04 -2.16 c0 -0.76 -0.3 -0.72 -0.7 -0.74 c-0.58 -0.02 -0.84 -0.02 -1.42 -0.02 c-0.38 -0.02 -0.54 0.08 -0.54 0.46 c0 1.96 -0.06 7.5 -0.04 8.3 s0.1 4.44 0.06 5.24 c-0.02 0.28 0 0.56 0.02 0.84 c0.02 0.1 0.08 0.2 0.24 0.2 c0.66 -0.04 1.28 -0.04 1.94 -0.06 c0.24 -0.02 0.44 -0.08 0.54 -0.34 c0.02 -0.14 -0.04 -3.8 -0.04 -4.76 z M29.1 6.960000000000001 c-0.02 1.24 0.1 10.3 0.08 10.96 c0 0.62 0 1.24 0.02 1.86 c0 0.1 0.06 0.2 0.16 0.2 c1.4 0.06 2.78 -0.06 4.18 -0.04 c0.46 0.02 0.92 0 1.36 0 c0.44 -0.02 0.48 -0.2 0.46 -0.56 c-0.02 -0.56 -0.02 -1.06 -0.02 -1.6 c-0.02 -0.28 -0.18 -0.38 -0.42 -0.38 c-0.82 0.02 -1.64 -0.02 -2.46 0.02 c-0.14 0.02 -0.28 0.02 -0.42 0.02 c-0.24 -0.02 -0.3 -0.08 -0.32 -0.34 l0 -0.3 c-0.06 -1.66 0.06 -3.38 0.06 -5.04 c-0.02 -1.4 0 -2.66 -0.02 -3.9 c0 -0.54 0 -1.08 -0.02 -1.6 c-0.02 -0.32 0 -0.66 -0.08 -0.98 c-0.04 -0.12 -0.1 -0.28 -0.24 -0.28 l-1.88 0 c-0.32 0 -0.42 0.22 -0.44 0.54 l0 1.42 z"></path></g><g id="SvgjsG1626" featureKey="inlineSymbolFeature-0" transform="matrix(1.7755711740205635,0,0,1.7755711740205635,81.46551503756162,-61.23944599893999)" fill="#fae398"><path xmlns="http://www.w3.org/2000/svg" d="M29.399,57.112c0.615,0.308,1.077,0.846,1.077,1.383c0,1.039-1.038,1.961-1.999,1.462l-15.223-7.881  c-0.846-0.499-1.576-0.808-1.576-1.884c0-1.115,0.692-1.385,1.576-1.922l15.223-7.881c1.038-0.346,1.999,0.424,1.999,1.462  c0,0.575-0.461,1.114-1.077,1.423l-13.761,6.918L29.399,57.112z"></path><path xmlns="http://www.w3.org/2000/svg" d="M29.033,60.209c-0.208,0-0.413-0.052-0.608-0.152l-15.223-7.881c-0.086-0.05-0.165-0.095-0.242-0.141  c-0.748-0.431-1.395-0.804-1.395-1.843c0-1.057,0.594-1.406,1.346-1.849c0.093-0.054,0.187-0.11,0.284-0.169l15.229-7.885  c0.195-0.066,0.377-0.097,0.558-0.097c0.9,0,1.606,0.728,1.606,1.658c0,0.587-0.437,1.172-1.139,1.522l-13.562,6.818l13.562,6.818  c0.691,0.346,1.139,0.93,1.139,1.484C30.588,59.407,29.861,60.209,29.033,60.209z M28.982,40.419c-0.156,0-0.314,0.026-0.47,0.078  L13.306,48.37c-0.091,0.057-0.188,0.113-0.281,0.167c-0.743,0.439-1.234,0.728-1.234,1.655c0,0.91,0.537,1.219,1.281,1.648  c0.079,0.045,0.158,0.09,0.239,0.139l15.217,7.877c0.162,0.084,0.332,0.127,0.504,0.127c0.697,0,1.33-0.709,1.33-1.488  c0-0.465-0.407-0.98-1.014-1.283l-13.962-7.02l13.962-7.02c0.616-0.308,1.014-0.828,1.014-1.321  C30.363,41.048,29.756,40.419,28.982,40.419z"></path><path xmlns="http://www.w3.org/2000/svg" d="M46.385,64.416c-0.231,0.691-0.922,1.077-1.614,0.961c-0.769-0.153-1.269-0.885-1.154-1.692  c0-0.076,0.039-0.191,0.077-0.307l9.88-27.831c0.23-0.692,0.922-1.038,1.614-0.923c0.73,0.154,1.269,0.885,1.153,1.652  c0,0.078-0.039,0.193-0.077,0.27L46.385,64.416z"></path><path xmlns="http://www.w3.org/2000/svg" d="M45.016,65.511c-0.088,0-0.177-0.008-0.263-0.022c-0.837-0.167-1.371-0.949-1.247-1.819  c-0.001-0.076,0.038-0.193,0.079-0.318l9.883-27.842c0.207-0.618,0.778-1.02,1.457-1.02c0.094,0,0.188,0.009,0.281,0.023  c0.812,0.172,1.369,0.97,1.247,1.781c0.001,0.086-0.047,0.22-0.087,0.302l-9.875,27.856C46.281,65.084,45.688,65.511,45.016,65.511z   M54.925,34.715c-0.58,0-1.068,0.34-1.244,0.867l-9.88,27.833c-0.035,0.104-0.07,0.213-0.07,0.27  c-0.108,0.767,0.349,1.439,1.062,1.582c0.071,0.012,0.147,0.018,0.223,0.018c0.575,0,1.083-0.363,1.263-0.904l9.881-27.872  c0.041-0.085,0.07-0.182,0.07-0.231c0.105-0.712-0.373-1.396-1.064-1.543C55.089,34.722,55.007,34.715,54.925,34.715z"></path><path xmlns="http://www.w3.org/2000/svg" d="M84.362,50.192L70.6,43.274c-0.614-0.309-1.075-0.848-1.075-1.423c0-1.038,1.037-1.962,1.998-1.462l15.223,7.881  c0.885,0.537,1.576,0.807,1.576,1.922c0,1.076-0.73,1.385-1.576,1.884l-15.223,7.881c-0.961,0.499-1.998-0.423-1.998-1.462  c0-0.537,0.461-1.075,1.075-1.383L84.362,50.192z"></path><path xmlns="http://www.w3.org/2000/svg" d="M70.967,60.209c-0.828,0-1.556-0.802-1.556-1.714c0-0.555,0.447-1.139,1.139-1.484l13.562-6.818L70.55,43.374  c-0.702-0.352-1.139-0.936-1.139-1.522c0-0.913,0.728-1.714,1.556-1.714c0.209,0,0.413,0.051,0.608,0.152l15.223,7.881  c0.104,0.062,0.198,0.119,0.29,0.173c0.753,0.442,1.347,0.792,1.347,1.849c0,1.039-0.646,1.412-1.395,1.843  c-0.078,0.046-0.157,0.091-0.237,0.138l-15.228,7.884C71.38,60.157,71.176,60.209,70.967,60.209z M70.967,40.363  c-0.696,0-1.33,0.709-1.33,1.488c0,0.493,0.397,1.013,1.014,1.321l13.962,7.02l-13.962,7.02c-0.606,0.305-1.014,0.82-1.014,1.283  c0,0.779,0.634,1.488,1.33,1.488c0.172,0,0.342-0.043,0.504-0.127l15.223-7.88c0.075-0.046,0.155-0.091,0.233-0.136  c0.744-0.43,1.282-0.738,1.282-1.648c0-0.928-0.491-1.216-1.235-1.655c-0.093-0.054-0.188-0.11-0.287-0.17l-15.216-7.876  C71.309,40.405,71.139,40.363,70.967,40.363z"></path></g><g id="SvgjsG1627" featureKey="nameRightFeature-0" transform="matrix(2.362017634819721,0,0,2.362017634819721,243.82789193848612,-1.3587254664186812)" fill="#fae398"><path d="M14.94 16.64 c0.02 0.96 0 1.94 -0.06 2.9 c0 0.08 -0.06 0.16 -0.12 0.2 c-0.08 0.06 -0.18 0.1 -0.28 0.1 c-1.24 0.2 -2.74 0.3 -3.94 -0.1 c-2.7 -0.92 -4.54 -3.94 -4.54 -7.4 c0 -3.74 2.68 -7.38 6.58 -7.52 c0.52 -0.02 2.3 -0.1 2.24 0.78 c-0.04 0.64 0.02 1.16 0 1.82 c0 0.12 -0.08 0.2 -0.2 0.18 c-1.14 -0.14 -2.44 -0.5 -3.54 0.02 c-0.92 0.44 -1.56 1.38 -1.92 2.3 c-0.64 1.52 -0.5 3.28 -0.06 4.84 c0.34 1.24 1.08 2.7 2.56 2.74 c0.08 0.02 0.84 0.06 0.84 -0.02 l-0.06 -2.56 c-0.02 -0.12 -0.02 -0.24 -0.04 -0.36 s-0.1 -0.16 -0.22 -0.18 c-0.32 0 -0.32 -0.02 -0.64 -0.02 c-0.74 0 -0.58 -0.5 -0.6 -0.66 c-0.02 -0.3 0 -0.58 -0.02 -0.88 c-0.02 -0.28 0.06 -0.5 0.34 -0.54 l0.24 0 c1.04 -0.06 2.1 0.02 3.2 0.02 c0.16 0 0.24 0.2 0.24 0.38 c0.02 0.2 0.02 0.34 0.02 0.54 c0.06 0.98 -0.06 1.98 -0.04 2.96 c0.02 0.16 0.02 0.3 0.02 0.46 z M16.98 8.28 c0 2.02 0.02 4.06 0.06 6.06 c0.02 1.22 0 2.6 0.58 3.72 c0.74 1.44 2.38 2.08 3.96 1.98 c1.08 -0.08 2.08 -0.36 2.86 -1.16 c1.32 -1.42 1.06 -3.64 1.08 -5.46 c0.04 -2.62 0.1 -5.06 0.1 -7.7 c0 -0.44 -0.14 -0.68 -0.58 -0.7 c-0.54 -0.02 -1.08 0 -1.62 0.04 c-0.22 0 -0.4 0.2 -0.4 0.44 c0.02 1.92 0.06 3.86 0.04 5.8 c-0.02 1.66 0.2 3.5 -0.42 5.08 c-0.24 0.58 -0.78 1.02 -1.42 1.02 c-1.6 -0.04 -1.54 -1.94 -1.6 -3.06 c-0.12 -2.44 0.06 -4.94 0.12 -7.38 c0 -0.46 0 -0.92 0.02 -1.38 c0.02 -0.24 0.06 -0.54 -0.26 -0.56 l-0.36 0 c-0.5 0.04 -1 -0.02 -1.5 0 c-0.48 0.04 -0.64 0.18 -0.64 0.66 c0 0.86 -0.02 1.74 -0.02 2.6 z M27.62 6.960000000000001 c-0.02 1.24 0.1 10.3 0.08 10.96 c0 0.62 0 1.24 0.02 1.86 c0 0.1 0.06 0.2 0.16 0.2 c1.4 0.06 2.78 -0.06 4.18 -0.04 c0.46 0.02 0.92 0 1.36 0 c0.44 -0.02 0.48 -0.2 0.46 -0.56 c-0.02 -0.56 -0.02 -1.06 -0.02 -1.6 c-0.02 -0.28 -0.18 -0.38 -0.42 -0.38 c-0.82 0.02 -1.64 -0.02 -2.46 0.02 c-0.14 0.02 -0.28 0.02 -0.42 0.02 c-0.24 -0.02 -0.3 -0.08 -0.32 -0.34 l0 -0.3 c-0.06 -1.66 0.06 -3.38 0.06 -5.04 c-0.02 -1.4 0 -2.66 -0.02 -3.9 c0 -0.54 0 -1.08 -0.02 -1.6 c-0.02 -0.32 0 -0.66 -0.08 -0.98 c-0.04 -0.12 -0.1 -0.28 -0.24 -0.28 l-1.88 0 c-0.32 0 -0.42 0.22 -0.44 0.54 l0 1.42 z M35.88 8.28 c0 2.02 0.02 4.06 0.06 6.06 c0.02 1.22 0 2.6 0.58 3.72 c0.74 1.44 2.38 2.08 3.96 1.98 c1.08 -0.08 2.08 -0.36 2.86 -1.16 c1.32 -1.42 1.06 -3.64 1.08 -5.46 c0.04 -2.62 0.1 -5.06 0.1 -7.7 c0 -0.44 -0.14 -0.68 -0.58 -0.7 c-0.54 -0.02 -1.08 0 -1.62 0.04 c-0.22 0 -0.4 0.2 -0.4 0.44 c0.02 1.92 0.06 3.86 0.04 5.8 c-0.02 1.66 0.2 3.5 -0.42 5.08 c-0.24 0.58 -0.78 1.02 -1.42 1.02 c-1.6 -0.04 -1.54 -1.94 -1.6 -3.06 c-0.12 -2.44 0.06 -4.94 0.12 -7.38 c0 -0.46 0 -0.92 0.02 -1.38 c0.02 -0.24 0.06 -0.54 -0.26 -0.56 l-0.36 0 c-0.5 0.04 -1 -0.02 -1.5 0 c-0.48 0.04 -0.64 0.18 -0.64 0.66 c0 0.86 -0.02 1.74 -0.02 2.6 z M50.34 5 l-3.04 0 c-0.26 0 -0.42 0.14 -0.42 0.4 c0 0.78 0.04 0.94 0.04 1.6 c0 0.28 0.22 0.28 1.36 0.28 c0.56 0 2.04 0 2.18 0.02 c0.04 0.02 0.12 0.1 0.12 0.16 c0 0.14 -0.04 0.28 -0.08 0.4 c-0.04 0.08 -0.06 0.16 -0.08 0.24 c-0.06 0.18 -3.84 11.2 -3.88 11.4 c-0.12 0.42 0.3 0.46 0.6 0.46 c0.54 0.02 6.1 0.04 6.64 0.04 c0.26 0 0.36 -0.2 0.36 -0.46 c0 -0.42 0.06 -0.86 0.06 -1.3 c0 -0.86 -0.5 -0.6 -1.46 -0.6 c-0.82 0 -1.54 -0.02 -2.46 -0.02 c-0.2 0 -0.38 -0.2 -0.32 -0.4 c0.2 -0.9 2.46 -7.4 2.88 -8.46 c0.16 -0.38 1.54 -3.7 0.78 -3.74 c-0.16 -0.02 -0.32 0 -0.48 0 c-0.94 0 -1.86 0 -2.8 -0.02 z M58.040000000000006 19.84 c0.06 0.02 0.24 0.02 0.42 0.02 c0.4 0 0.52 -1.44 0.56 -1.74 c0.02 -0.24 0.08 -0.26 0.28 -0.3 c1 -0.12 1.5 -0.04 2.5 -0.02 c0.22 0 0.34 0.1 0.4 0.28 l0.14 0.46 c0.12 0.34 0.22 0.76 0.34 1.1 c0.08 0.24 0.1 0.22 0.34 0.22 c0.32 0 1.48 0 1.82 -0.02 c0.46 0 0.14 -0.94 0.08 -1.1 c-0.18 -0.56 -0.22 -1.14 -0.4 -1.7 c-0.08 -0.24 -2.36 -11.06 -2.46 -11.66 c-0.14 -0.36 -0.02 -0.38 -0.34 -0.38 c-0.68 0 -1.4 0.04 -2.1 0 c-0.28 0 -0.26 0.08 -0.3 0.38 c-0.04 0.28 -0.76 3.46 -1.04 4.78 c-0.36 1.66 -0.68 3.26 -1.08 4.9 c-0.14 0.58 -1.1 4.76 -0.98 4.78 c0.06 0.04 0.16 0.02 0.24 0.02 c0.5 0 0.96 0 1.58 -0.02 z M60.660000000000004 15.3 l-0.42 0 c-0.56 0 -0.58 0 -0.44 -0.58 c0.1 -0.44 0.64 -2.82 0.76 -3.4 c0.02 -0.04 0.06 -0.08 0.08 -0.08 c0.04 0 0.08 0.04 0.1 0.06 c0.08 0.24 0.16 0.84 0.24 1.08 c0.18 0.76 0.3 1.4 0.48 2.22 c0.18 0.72 0.1 0.72 -0.26 0.72 c-0.18 0 -0.36 -0.02 -0.54 -0.02 z M75.5 16.32 c0.12 -0.26 0.22 -0.52 0.32 -0.78 c0.22 -0.64 0.26 -1.3 0.32 -1.96 c0.12 -1.4 0.08 -2.82 -0.28 -4.18 c-0.44 -1.74 -1.56 -3.34 -3.24 -4.08 c-0.76 -0.34 -1.62 -0.38 -2.44 -0.36 c-0.86 0 -1.74 -0.04 -2.6 0.04 c-0.24 0.02 -0.36 0.14 -0.4 0.36 c-0.04 0.24 -0.08 0.48 -0.08 0.7 c0.04 1.22 0 4.84 0.04 5.44 c0.02 0.54 -0.04 1.2 -0.04 1.74 c0.02 1.34 0 2.7 0 4.04 c0 0.56 -0.02 1.1 -0.02 1.66 c0 0.6 -0.22 0.86 1.42 0.86 c1.46 0 2.98 -0.12 4.36 -0.64 c1.28 -0.46 2.08 -1.64 2.64 -2.84 z M69.67999999999999 14.24 l0 -2.4 c0 -1.52 0.04 -2.5 -0.02 -3.78 l0 -0.24 c0.02 -0.42 0.08 -0.44 0.52 -0.44 c0.58 -0.02 1 0.12 1.5 0.32 s0.78 0.64 1.04 1.06 c0.5 0.82 0.7 1.72 0.74 2.66 c0.02 0.54 0.04 1.08 0.04 1.62 c0 2.56 -1.5 4.34 -2.82 4.34 c-0.88 0 -1.02 0.06 -1.02 -0.52 c0 -0.6 0.04 -1.2 0.04 -1.8 c-0.02 -0.26 -0.02 -0.54 -0.02 -0.82 z M78.22 15.9 l-0.02 0 c0 0.5 -0.02 1.02 0 1.54 c0.02 0.64 0.06 1.28 0.1 1.92 c0 0.22 0.06 0.28 0.26 0.32 c0.42 0.1 0.82 0.12 1.24 0.12 c1.08 -0.04 2.16 0.04 3.24 0 c0.44 -0.02 0.64 0.02 1.08 -0.06 c0.4 -0.08 0.54 -0.3 0.54 -0.9 c-0.04 -0.38 -0.02 -0.54 -0.02 -1 c0 -0.66 -0.46 -0.88 -0.86 -0.86 c-0.28 0.02 -1.62 -0.02 -2.16 -0.02 c-0.9 0.02 -0.76 0.14 -0.76 -0.8 c0 -0.76 0.02 -1.74 0.02 -2.52 c0 -0.42 0.04 -0.56 0.44 -0.56 l2.5 0 c0.4 0.06 0.68 -0.22 0.68 -0.64 s0.04 -0.44 0.04 -0.86 l-0.06 -0.6 c-0.04 -0.34 -0.16 -0.46 -0.5 -0.46 c-0.22 0 -0.44 0.02 -0.66 0.04 c-0.86 0.06 -1.26 -0.06 -2.1 0 c-0.28 0 -0.32 -0.04 -0.34 -0.3 c-0.08 -0.78 0 -1.64 0.08 -2.42 c0.02 -0.32 0.1 -0.38 0.4 -0.4 l2.82 -0.02 c0.38 -0.04 0.5 -0.02 0.48 -0.4 c-0.04 -0.58 0.02 -1.18 -0.04 -1.76 c-0.04 -0.32 -0.14 -0.38 -0.5 -0.38 c-0.6 0.02 -0.74 0.02 -1.34 0.06 c-0.6 0.02 -3 0.02 -3.58 0.02 c-0.84 0 -0.9 -0.06 -0.92 0.96 c-0.04 0.8 -0.02 1.62 -0.02 2.44 c0 1.4 -0.08 6.42 -0.04 7.54 z M92.66 14.08 c0 0.9 -0.02 2.68 -0.04 2.68 l0 2.72 c0 0.12 -0.02 0.32 0.04 0.44 c0.06 0.14 0.24 0.1 0.36 0.08 c0.58 -0.06 1.16 0.02 1.74 0 c0.64 -0.02 0.44 -1 0.42 -1.4 c-0.08 -0.88 0.02 -7.58 0.02 -9.98 c0 -1.08 -0.04 -3.3 -0.1 -3.4 c-0.1 -0.18 -0.36 -0.22 -0.56 -0.24 c-0.44 -0.08 -0.66 0.04 -1.32 0.04 s-0.7 0.2 -0.7 0.9 l0 0.6 c-0.02 0.48 0.06 3.84 0.06 4.38 c0 0.26 -0.02 0.28 -0.28 0.28 c-0.66 -0.02 -1.58 0.06 -2.26 0 c-0.98 -0.08 -0.76 0 -0.82 -0.9 l0 -0.12 c0 -1.28 0.16 -4.6 0.1 -4.8 c-0.1 -0.3 -0.22 -0.36 -0.48 -0.34 c-0.6 0.04 -1.22 -0.06 -1.82 -0.02 c-0.2 0.02 -0.26 0.08 -0.32 0.28 c-0.02 0.1 -0.04 0.2 -0.04 0.3 c0 0.62 0.04 1.46 0.06 2.08 l-0.06 11.86 c0 0.52 0.46 0.46 1.48 0.46 c0.94 0 1.18 0.22 1.18 -0.9 c0 -0.9 -0.06 -2.04 -0.04 -2.94 c0.02 -0.7 0 -1.38 0 -2.08 c0.02 -0.26 0.08 -0.34 0.32 -0.34 c0.88 -0.02 1.84 0 2.72 0 c0.28 0 0.34 0.04 0.34 0.36 z"></path></g>
			</g>
		</svg>
	